<?xml version="1.0" encoding="UTF-8" standalone="no"?>
<svg
   xmlns:dc="http://purl.org/dc/elements/1.1/"
   xmlns:cc="http://creativecommons.org/ns#"
   xmlns:rdf="http://www.w3.org/1999/02/22-rdf-syntax-ns#"
   xmlns:svg="http://www.w3.org/2000/svg"
   xmlns="http://www.w3.org/2000/svg"
   xmlns:sodipodi="http://sodipodi.sourceforge.net/DTD/sodipodi-0.dtd"
   xmlns:inkscape="http://www.inkscape.org/namespaces/inkscape"
   width="169.33mm"
   height="508.5mm"
   version="1.1"
   viewBox="0 0 599.99998 1801.7893"
   id="svg1423"
   sodipodi:docname="quetzal.svg"
   inkscape:version="0.92.4 (5da689c313, 2019-01-14)">
  <metadata
     id="metadata1429">
    <rdf:RDF>
      <cc:Work
         rdf:about="">
        <dc:format>image/svg+xml</dc:format>
        <dc:type
           rdf:resource="http://purl.org/dc/dcmitype/StillImage" />
        <dc:title></dc:title>
      </cc:Work>
    </rdf:RDF>
  </metadata>
  <defs
     id="defs1427" />
  <sodipodi:namedview
     pagecolor="#ffffff"
     bordercolor="#666666"
     borderopacity="1"
     objecttolerance="10"
     gridtolerance="10"
     guidetolerance="10"
     inkscape:pageopacity="0"
     inkscape:pageshadow="2"
     inkscape:window-width="1920"
     inkscape:window-height="1017"
     id="namedview1425"
     showgrid="false"
     showguides="true"
     inkscape:guide-bbox="true"
     inkscape:zoom="0.01"
     inkscape:cx="-9660.9687"
     inkscape:cy="-28912.991"
     inkscape:window-x="-8"
     inkscape:window-y="-8"
     inkscape:window-maximized="1"
     inkscape:current-layer="svg1423" />
  <g
     id="g1763"
     transform="translate(-1920.7942,-114.73771)"
     style="fill:#009900;fill-opacity:1">
    <rect
       y="97.73069"
       x="-1045.3881"
       height="2090.7761"
       width="943.39899"
       id="rect1760"
       style="opacity:1;fill:#009900;fill-opacity:1;stroke:none;stroke-width:0.05250103;stroke-linecap:round;stroke-linejoin:round;stroke-miterlimit:4;stroke-dasharray:none;stroke-opacity:1;paint-order:normal" />
  </g>
  <g
     id="g2409"
     transform="matrix(-1.9230749,0.03014664,0.03014664,1.9230749,-51.894059,-3044.7262)">
    <path
       d="m -799.16062,1599.5843 c 3.49528,-8.5294 24.82223,-29.0068 27.933,-29.8636 1.16188,-62.7217 26.76184,-54.6056 26.76184,-54.6056 36.8446,-6.4024 70.20275,-3.8414 68.26314,53.7588 -6.98091,31.9906 -2.32385,46.4994 17.84122,65.2722 159.41249,110.0797 176.08796,165.5475 186.16892,176.6465 -117.13372,35.4086 -234.26744,43.949 -300.19457,-94.7196 -13.19353,-46.4994 14.72956,-104.1068 14.72956,-104.1068 1.17142,-3.8309 1.55556,-13.6512 1.55556,-13.6512 -12.41606,3.8415 -43.05713,1.2805 -43.05713,1.2805 z"
       id="path1734"
       inkscape:connector-curvature="0"
       style="fill:#009900;fill-opacity:1;stroke:none;stroke-width:9.00889969" />
    <path
       d="m -533.29798,1745.5516 c 233.87105,257.6996 361.09473,682.244 -147.3856,1460.0725 195.8715,-410.0311 494.13816,-1027.8254 122.55708,-1445.1177 l 24.83213,-14.9422"
       id="path1746"
       inkscape:connector-curvature="0"
       style="fill:#009900;fill-opacity:1;stroke:none;stroke-width:9.00889969" />
    <path
       d="m -533.29798,1787.3529 c 185.00677,223.1414 321.14927,549.5429 55.4633,821.7468 147.3856,-264.9517 198.58318,-412.1571 -82.22513,-809.3776 l 26.76183,-12.371"
       id="path1748"
       inkscape:connector-curvature="0"
       style="fill:#009900;fill-opacity:1;stroke:none;stroke-width:9.00889969" />
    <path
       d="m -527.80255,1738.3445 c 234.26744,257.6995 364.59019,677.1179 -143.89916,1454.9374 207.51101,-434.3461 532.93049,-983.862 122.5751,-1445.1177 l 21.32677,-9.8098"
       id="path1750"
       inkscape:connector-curvature="0"
       style="fill:#009900;fill-opacity:1;stroke:none;stroke-width:9.00889969" />
    <path
       style="fill:#009900;fill-opacity:1;stroke:none;stroke-width:1.26160634;stroke-linecap:round;stroke-linejoin:round"
       inkscape:connector-curvature="0"
       id="path1752"
       d="m -554.19862,1765.6414 c 197.42103,272.213 269.18593,605.0108 -365.75234,1514.216 320.76189,-490.2283 648.89305,-1058.9962 341.32921,-1495.8378 l 24.42853,-18.3502" />
    <path
       style="fill:#009900;fill-opacity:1;stroke:none;stroke-width:1.26160634;stroke-linecap:round;stroke-linejoin:round"
       inkscape:connector-curvature="0"
       id="path1754"
       d="m -552.66711,1802.7581 c 147.77299,178.7726 220.69102,446.2919 8.14278,664.3163 102.39516,-184.3131 167.55653,-375.4549 -29.8636,-654.5056 l 21.72046,-9.8098" />
    <path
       style="fill:#009900;fill-opacity:1;stroke:none;stroke-width:9.00889969"
       inkscape:connector-curvature="0"
       id="path1756"
       d="m -542.21679,1802.7581 c 148.15136,178.7726 193.5382,500.048 -19.01238,717.649 117.90848,-211.6281 222.62794,-389.5359 -2.32376,-707.8383 l 21.33668,-9.8098" />
    <path
       style="fill:#009900;fill-opacity:1;stroke:none;stroke-width:1.26160634;stroke-linecap:round;stroke-linejoin:round"
       inkscape:connector-curvature="0"
       id="path1758"
       d="m -522.03685,1754.5605 c 197.04266,271.3571 299.81619,612.2719 -365.75233,1513.7655 316.49166,-482.5617 661.30731,-1041.5189 341.31118,-1495.9279 l 24.43755,-17.916" />
  </g>
  <text
     xml:space="preserve"
     style="font-style:normal;font-weight:normal;font-size:244.6424408px;line-height:1.25;font-family:sans-serif;letter-spacing:0px;word-spacing:0px;fill:#009900;fill-opacity:1;stroke:none;stroke-width:6.11606121"
     x="878.68427"
     y="1177.4585"
     id="text2399"><tspan
       sodipodi:role="line"
       id="tspan2397"
       x="878.68427"
       y="1177.4585"
       style="font-style:normal;font-variant:normal;font-weight:normal;font-stretch:normal;font-size:1174.28369141px;font-family:Amaranth;-inkscape-font-specification:Amaranth;fill:#009900;fill-opacity:1;stroke-width:6.11606121"
       dx="-100">Quetzal</tspan></text>
  <g
     style="fill:#009900;fill-opacity:1"
     transform="matrix(15.675176,0,0,5.4795758,9855.4708,3523.2948)"
     id="g2419">
    <rect
       style="opacity:1;fill:#009900;fill-opacity:1;stroke:none;stroke-width:0.05250103;stroke-linecap:round;stroke-linejoin:round;stroke-miterlimit:4;stroke-dasharray:none;stroke-opacity:1;paint-order:normal"
       id="rect2417"
       width="943.39899"
       height="2090.7761"
       x="-1045.3881"
       y="97.73069" />
  </g>
  <g
     transform="matrix(-5.6460458,0.08850894,0.08850894,5.6460458,-7269.0126,-3345.7113)"
     id="g2437"
     style="fill:#ffffff">
    <path
       style="fill:#ffffff;fill-opacity:1;stroke:none;stroke-width:9.00889969"
       inkscape:connector-curvature="0"
       id="path2421"
       d="m -799.16062,1599.5843 c 3.49528,-8.5294 24.82223,-29.0068 27.933,-29.8636 1.16188,-62.7217 26.76184,-54.6056 26.76184,-54.6056 36.8446,-6.4024 70.20275,-3.8414 68.26314,53.7588 -6.98091,31.9906 -2.32385,46.4994 17.84122,65.2722 159.41249,110.0797 176.08796,165.5475 186.16892,176.6465 -117.13372,35.4086 -234.26744,43.949 -300.19457,-94.7196 -13.19353,-46.4994 14.72956,-104.1068 14.72956,-104.1068 1.17142,-3.8309 1.55556,-13.6512 1.55556,-13.6512 -12.41606,3.8415 -43.05713,1.2805 -43.05713,1.2805 z" />
    <path
       style="fill:#ffffff;fill-opacity:1;stroke:none;stroke-width:9.00889969"
       inkscape:connector-curvature="0"
       id="path2423"
       d="m -533.29798,1745.5516 c 233.87105,257.6996 361.09473,682.244 -147.3856,1460.0725 195.8715,-410.0311 494.13816,-1027.8254 122.55708,-1445.1177 l 24.83213,-14.9422" />
    <path
       style="fill:#ffffff;fill-opacity:1;stroke:none;stroke-width:9.00889969"
       inkscape:connector-curvature="0"
       id="path2425"
       d="m -533.29798,1787.3529 c 185.00677,223.1414 321.14927,549.5429 55.4633,821.7468 147.3856,-264.9517 198.58318,-412.1571 -82.22513,-809.3776 l 26.76183,-12.371" />
    <path
       style="fill:#ffffff;fill-opacity:1;stroke:none;stroke-width:9.00889969"
       inkscape:connector-curvature="0"
       id="path2427"
       d="m -527.80255,1738.3445 c 234.26744,257.6995 364.59019,677.1179 -143.89916,1454.9374 207.51101,-434.3461 532.93049,-983.862 122.5751,-1445.1177 l 21.32677,-9.8098" />
    <path
       d="m -554.19862,1765.6414 c 197.42103,272.213 269.18593,605.0108 -365.75234,1514.216 320.76189,-490.2283 648.89305,-1058.9962 341.32921,-1495.8378 l 24.42853,-18.3502"
       id="path2429"
       inkscape:connector-curvature="0"
       style="fill:#ffffff;fill-opacity:1;stroke:none;stroke-width:1.26160634;stroke-linecap:round;stroke-linejoin:round" />
    <path
       d="m -552.66711,1802.7581 c 147.77299,178.7726 220.69102,446.2919 8.14278,664.3163 102.39516,-184.3131 167.55653,-375.4549 -29.8636,-654.5056 l 21.72046,-9.8098"
       id="path2431"
       inkscape:connector-curvature="0"
       style="fill:#ffffff;fill-opacity:1;stroke:none;stroke-width:1.26160634;stroke-linecap:round;stroke-linejoin:round" />
    <path
       d="m -542.21679,1802.7581 c 148.15136,178.7726 193.5382,500.048 -19.01238,717.649 117.90848,-211.6281 222.62794,-389.5359 -2.32376,-707.8383 l 21.33668,-9.8098"
       id="path2433"
       inkscape:connector-curvature="0"
       style="fill:#ffffff;fill-opacity:1;stroke:none;stroke-width:9.00889969" />
    <path
       d="m -522.03685,1754.5605 c 197.04266,271.3571 299.81619,612.2719 -365.75233,1513.7655 316.49166,-482.5617 661.30731,-1041.5189 341.31118,-1495.9279 l 24.43755,-17.916"
       id="path2435"
       inkscape:connector-curvature="0"
       style="fill:#ffffff;fill-opacity:1;stroke:none;stroke-width:1.26160634;stroke-linecap:round;stroke-linejoin:round" />
  </g>
  <text
     id="text2441"
     y="9050.3984"
     x="-4536.8843"
     style="font-style:normal;font-weight:normal;font-size:718.25720215px;line-height:1.25;font-family:sans-serif;letter-spacing:0px;word-spacing:0px;fill:#ffffff;fill-opacity:1;stroke:none;stroke-width:17.95643044"
     xml:space="preserve"><tspan
       dx="-293.59467"
       style="font-style:normal;font-variant:normal;font-weight:normal;font-stretch:normal;font-size:3447.63452148px;font-family:Amaranth;-inkscape-font-specification:Amaranth;fill:#ffffff;fill-opacity:1;stroke-width:17.95643044"
       y="9050.3984"
       x="-4536.8843"
       id="tspan2439"
       sodipodi:role="line">Quetzal</tspan></text>
  <g
     style="fill:#009900;fill-opacity:1"
     id="g2459"
     transform="matrix(-5.6460458,0.08850894,0.08850894,5.6460458,-6847.1293,7951.3853)">
    <path
       d="m -799.16062,1599.5843 c 3.49528,-8.5294 24.82223,-29.0068 27.933,-29.8636 1.16188,-62.7217 26.76184,-54.6056 26.76184,-54.6056 36.8446,-6.4024 70.20275,-3.8414 68.26314,53.7588 -6.98091,31.9906 -2.32385,46.4994 17.84122,65.2722 159.41249,110.0797 176.08796,165.5475 186.16892,176.6465 -117.13372,35.4086 -234.26744,43.949 -300.19457,-94.7196 -13.19353,-46.4994 14.72956,-104.1068 14.72956,-104.1068 1.17142,-3.8309 1.55556,-13.6512 1.55556,-13.6512 -12.41606,3.8415 -43.05713,1.2805 -43.05713,1.2805 z"
       id="path2443"
       inkscape:connector-curvature="0"
       style="fill:#009900;fill-opacity:1;stroke:none;stroke-width:9.00889969" />
    <path
       d="m -533.29798,1745.5516 c 233.87105,257.6996 361.09473,682.244 -147.3856,1460.0725 195.8715,-410.0311 494.13816,-1027.8254 122.55708,-1445.1177 l 24.83213,-14.9422"
       id="path2445"
       inkscape:connector-curvature="0"
       style="fill:#009900;fill-opacity:1;stroke:none;stroke-width:9.00889969" />
    <path
       d="m -533.29798,1787.3529 c 185.00677,223.1414 321.14927,549.5429 55.4633,821.7468 147.3856,-264.9517 198.58318,-412.1571 -82.22513,-809.3776 l 26.76183,-12.371"
       id="path2447"
       inkscape:connector-curvature="0"
       style="fill:#009900;fill-opacity:1;stroke:none;stroke-width:9.00889969" />
    <path
       d="m -527.80255,1738.3445 c 234.26744,257.6995 364.59019,677.1179 -143.89916,1454.9374 207.51101,-434.3461 532.93049,-983.862 122.5751,-1445.1177 l 21.32677,-9.8098"
       id="path2449"
       inkscape:connector-curvature="0"
       style="fill:#009900;fill-opacity:1;stroke:none;stroke-width:9.00889969" />
    <path
       style="fill:#009900;fill-opacity:1;stroke:none;stroke-width:1.26160634;stroke-linecap:round;stroke-linejoin:round"
       inkscape:connector-curvature="0"
       id="path2451"
       d="m -554.19862,1765.6414 c 197.42103,272.213 269.18593,605.0108 -365.75234,1514.216 320.76189,-490.2283 648.89305,-1058.9962 341.32921,-1495.8378 l 24.42853,-18.3502" />
    <path
       style="fill:#009900;fill-opacity:1;stroke:none;stroke-width:1.26160634;stroke-linecap:round;stroke-linejoin:round"
       inkscape:connector-curvature="0"
       id="path2453"
       d="m -552.66711,1802.7581 c 147.77299,178.7726 220.69102,446.2919 8.14278,664.3163 102.39516,-184.3131 167.55653,-375.4549 -29.8636,-654.5056 l 21.72046,-9.8098" />
    <path
       style="fill:#009900;fill-opacity:1;stroke:none;stroke-width:9.00889969"
       inkscape:connector-curvature="0"
       id="path2455"
       d="m -542.21679,1802.7581 c 148.15136,178.7726 193.5382,500.048 -19.01238,717.649 117.90848,-211.6281 222.62794,-389.5359 -2.32376,-707.8383 l 21.33668,-9.8098" />
    <path
       style="fill:#009900;fill-opacity:1;stroke:none;stroke-width:1.26160634;stroke-linecap:round;stroke-linejoin:round"
       inkscape:connector-curvature="0"
       id="path2457"
       d="m -522.03685,1754.5605 c 197.04266,271.3571 299.81619,612.2719 -365.75233,1513.7655 316.49166,-482.5617 661.30731,-1041.5189 341.31118,-1495.9279 l 24.43755,-17.916" />
  </g>
  <text
     xml:space="preserve"
     style="font-style:normal;font-weight:normal;font-size:718.25720215px;line-height:1.25;font-family:sans-serif;letter-spacing:0px;word-spacing:0px;fill:#009900;fill-opacity:1;stroke:none;stroke-width:17.95643044;"
     x="-4115.001"
     y="20347.494"
     id="text2463"><tspan
       sodipodi:role="line"
       id="tspan2461"
       x="-4115.001"
       y="20347.494"
       style="font-style:normal;font-variant:normal;font-weight:normal;font-stretch:normal;font-size:3447.63452148px;font-family:Amaranth;-inkscape-font-specification:Amaranth;fill:#009900;fill-opacity:1;stroke-width:17.95643044;"
       dx="-293.59467">Quetzal</tspan></text>
  <rect
     style="opacity:1;fill:#009900;fill-opacity:1;stroke:none;stroke-width:0.05250103;stroke-linecap:round;stroke-linejoin:round;stroke-miterlimit:4;stroke-dasharray:none;stroke-opacity:1;paint-order:normal"
     id="rect2469"
     width="10474.225"
     height="10474.225"
     x="18760.795"
     y="8596.7852" />
  <g
     style="fill:#ffffff"
     id="g2489"
     transform="matrix(-5.6460458,0.08850894,0.08850894,5.6460458,-7269.0126,-3345.7113)">
    <path
       d="m -799.16062,1599.5843 c 3.49528,-8.5294 24.82223,-29.0068 27.933,-29.8636 1.16188,-62.7217 26.76184,-54.6056 26.76184,-54.6056 36.8446,-6.4024 70.20275,-3.8414 68.26314,53.7588 -6.98091,31.9906 -2.32385,46.4994 17.84122,65.2722 159.41249,110.0797 176.08796,165.5475 186.16892,176.6465 -117.13372,35.4086 -234.26744,43.949 -300.19457,-94.7196 -13.19353,-46.4994 14.72956,-104.1068 14.72956,-104.1068 1.17142,-3.8309 1.55556,-13.6512 1.55556,-13.6512 -12.41606,3.8415 -43.05713,1.2805 -43.05713,1.2805 z"
       id="path2473"
       inkscape:connector-curvature="0"
       style="fill:#ffffff;fill-opacity:1;stroke:none;stroke-width:9.00889969" />
    <path
       d="m -533.29798,1745.5516 c 233.87105,257.6996 361.09473,682.244 -147.3856,1460.0725 195.8715,-410.0311 494.13816,-1027.8254 122.55708,-1445.1177 l 24.83213,-14.9422"
       id="path2475"
       inkscape:connector-curvature="0"
       style="fill:#ffffff;fill-opacity:1;stroke:none;stroke-width:9.00889969" />
    <path
       d="m -533.29798,1787.3529 c 185.00677,223.1414 321.14927,549.5429 55.4633,821.7468 147.3856,-264.9517 198.58318,-412.1571 -82.22513,-809.3776 l 26.76183,-12.371"
       id="path2477"
       inkscape:connector-curvature="0"
       style="fill:#ffffff;fill-opacity:1;stroke:none;stroke-width:9.00889969" />
    <path
       d="m -527.80255,1738.3445 c 234.26744,257.6995 364.59019,677.1179 -143.89916,1454.9374 207.51101,-434.3461 532.93049,-983.862 122.5751,-1445.1177 l 21.32677,-9.8098"
       id="path2479"
       inkscape:connector-curvature="0"
       style="fill:#ffffff;fill-opacity:1;stroke:none;stroke-width:9.00889969" />
    <path
       style="fill:#ffffff;fill-opacity:1;stroke:none;stroke-width:1.26160634;stroke-linecap:round;stroke-linejoin:round"
       inkscape:connector-curvature="0"
       id="path2481"
       d="m -554.19862,1765.6414 c 197.42103,272.213 269.18593,605.0108 -365.75234,1514.216 320.76189,-490.2283 648.89305,-1058.9962 341.32921,-1495.8378 l 24.42853,-18.3502" />
    <path
       style="fill:#ffffff;fill-opacity:1;stroke:none;stroke-width:1.26160634;stroke-linecap:round;stroke-linejoin:round"
       inkscape:connector-curvature="0"
       id="path2483"
       d="m -552.66711,1802.7581 c 147.77299,178.7726 220.69102,446.2919 8.14278,664.3163 102.39516,-184.3131 167.55653,-375.4549 -29.8636,-654.5056 l 21.72046,-9.8098" />
    <path
       style="fill:#ffffff;fill-opacity:1;stroke:none;stroke-width:9.00889969"
       inkscape:connector-curvature="0"
       id="path2485"
       d="m -542.21679,1802.7581 c 148.15136,178.7726 193.5382,500.048 -19.01238,717.649 117.90848,-211.6281 222.62794,-389.5359 -2.32376,-707.8383 l 21.33668,-9.8098" />
    <path
       style="fill:#ffffff;fill-opacity:1;stroke:none;stroke-width:1.26160634;stroke-linecap:round;stroke-linejoin:round"
       inkscape:connector-curvature="0"
       id="path2487"
       d="m -522.03685,1754.5605 c 197.04266,271.3571 299.81619,612.2719 -365.75233,1513.7655 316.49166,-482.5617 661.30731,-1041.5189 341.31118,-1495.9279 l 24.43755,-17.916" />
  </g>
  <text
     xml:space="preserve"
     style="font-style:normal;font-weight:normal;font-size:718.25720215px;line-height:1.25;font-family:sans-serif;letter-spacing:0px;word-spacing:0px;fill:#ffffff;fill-opacity:1;stroke:none;stroke-width:17.95643044"
     x="-4536.8843"
     y="9050.3984"
     id="text2493"><tspan
       sodipodi:role="line"
       id="tspan2491"
       x="-4536.8843"
       y="9050.3984"
       style="font-style:normal;font-variant:normal;font-weight:normal;font-stretch:normal;font-size:3447.63452148px;font-family:Amaranth;-inkscape-font-specification:Amaranth;fill:#ffffff;fill-opacity:1;stroke-width:17.95643044"
       dx="-293.59467">Quetzal</tspan></text>
  <g
     transform="matrix(-26.07052,0.40868852,0.40868852,26.07052,5012.6938,-28388.253)"
     id="g2519"
     style="fill:#ffffff">
    <path
       style="fill:#ffffff;fill-opacity:1;stroke:none;stroke-width:9.00889969"
       inkscape:connector-curvature="0"
       id="path2503"
       d="m -799.16062,1599.5843 c 3.49528,-8.5294 24.82223,-29.0068 27.933,-29.8636 1.16188,-62.7217 26.76184,-54.6056 26.76184,-54.6056 36.8446,-6.4024 70.20275,-3.8414 68.26314,53.7588 -6.98091,31.9906 -2.32385,46.4994 17.84122,65.2722 159.41249,110.0797 176.08796,165.5475 186.16892,176.6465 -117.13372,35.4086 -234.26744,43.949 -300.19457,-94.7196 -13.19353,-46.4994 14.72956,-104.1068 14.72956,-104.1068 1.17142,-3.8309 1.55556,-13.6512 1.55556,-13.6512 -12.41606,3.8415 -43.05713,1.2805 -43.05713,1.2805 z" />
    <path
       style="fill:#ffffff;fill-opacity:1;stroke:none;stroke-width:9.00889969"
       inkscape:connector-curvature="0"
       id="path2505"
       d="m -533.29798,1745.5516 c 233.87105,257.6996 361.09473,682.244 -147.3856,1460.0725 195.8715,-410.0311 494.13816,-1027.8254 122.55708,-1445.1177 l 24.83213,-14.9422" />
    <path
       style="fill:#ffffff;fill-opacity:1;stroke:none;stroke-width:9.00889969"
       inkscape:connector-curvature="0"
       id="path2507"
       d="m -533.29798,1787.3529 c 185.00677,223.1414 321.14927,549.5429 55.4633,821.7468 147.3856,-264.9517 198.58318,-412.1571 -82.22513,-809.3776 l 26.76183,-12.371" />
    <path
       style="fill:#ffffff;fill-opacity:1;stroke:none;stroke-width:9.00889969"
       inkscape:connector-curvature="0"
       id="path2509"
       d="m -527.80255,1738.3445 c 234.26744,257.6995 364.59019,677.1179 -143.89916,1454.9374 207.51101,-434.3461 532.93049,-983.862 122.5751,-1445.1177 l 21.32677,-9.8098" />
    <path
       d="m -554.19862,1765.6414 c 197.42103,272.213 269.18593,605.0108 -365.75234,1514.216 320.76189,-490.2283 648.89305,-1058.9962 341.32921,-1495.8378 l 24.42853,-18.3502"
       id="path2511"
       inkscape:connector-curvature="0"
       style="fill:#ffffff;fill-opacity:1;stroke:none;stroke-width:1.26160634;stroke-linecap:round;stroke-linejoin:round" />
    <path
       d="m -552.66711,1802.7581 c 147.77299,178.7726 220.69102,446.2919 8.14278,664.3163 102.39516,-184.3131 167.55653,-375.4549 -29.8636,-654.5056 l 21.72046,-9.8098"
       id="path2513"
       inkscape:connector-curvature="0"
       style="fill:#ffffff;fill-opacity:1;stroke:none;stroke-width:1.26160634;stroke-linecap:round;stroke-linejoin:round" />
    <path
       d="m -542.21679,1802.7581 c 148.15136,178.7726 193.5382,500.048 -19.01238,717.649 117.90848,-211.6281 222.62794,-389.5359 -2.32376,-707.8383 l 21.33668,-9.8098"
       id="path2515"
       inkscape:connector-curvature="0"
       style="fill:#ffffff;fill-opacity:1;stroke:none;stroke-width:9.00889969" />
    <path
       d="m -522.03685,1754.5605 c 197.04266,271.3571 299.81619,612.2719 -365.75233,1513.7655 316.49166,-482.5617 661.30731,-1041.5189 341.31118,-1495.9279 l 24.43755,-17.916"
       id="path2517"
       inkscape:connector-curvature="0"
       style="fill:#ffffff;fill-opacity:1;stroke:none;stroke-width:1.26160634;stroke-linecap:round;stroke-linejoin:round" />
  </g>
</svg>
